# xmcd CD database file
# Copyright (C) 1993-1998 Ti Kan
#
# Track frame offsets:
#	182
#	9712
#	19347
#	31125
#	41307
#	51480
#	62210
#	71390
#	81580
#	91782
#	102017
#	116535
#	131822
#	143040
#	155192
#	166602
#	175937
#	186027
#	195720
#	207410
#	219377
#	228415
#	238687
#	249425
#	259237
#	269222
#	280202
#	290727
#	301262
#	313867
#	325375
#
# Disc length: 4472 seconds
#
# Revision: 1
# Processed by: cddbd v1.4b41PL1 Copyright (c) Steve Scherf et al.
# Submitted via: NotifyCDPlayer(CDDB) 1.51.3
#
DISCID=d211761f
DTITLE=The Stanley Brothers - The Early Starday-King Years 1958-61 Vol. 4
DYEAR=1900
DGENRE=
TTITLE0=Let Me Love You One More Time
TTITLE1=Little Bennie
TTITLE2=Old Love Letters
TTITLE3=Daybreak in Dixie (undubbed version)
TTITLE4=Daybreak in Dixie (overdubbed)
TTITLE5=Wildwood Flower
TTITLE6=Let Me Rest
TTITLE7=Are You Tired of Me My Darling
TTITLE8=Finger Popping Time (undubbed)
TTITLE9=Finger Popping Time (overdubbed)
TTITLE10=Rank Stranger (previously unreleased)
TTITLE11=Come All Ye Tenderhearted
TTITLE12=The Window Up Above
TTITLE13=Lover's Quarrel
TTITLE14=The Story of the Lawson Family
TTITLE15=Hey Hey Hey
TTITLE16=The Wild Side of Life
TTITLE17=Jenny Lynnn
TTITLE18=What About You
TTITLE19=Little Willie
TTITLE20=Big Tilda
TTITLE21=Wild Bill Jones
TTITLE22=Your Still to Blame
TTITLE23=I'll Take the Blame
TTITLE24=I'll Just Go Away
TTITLE25=Steel Guitar Rag (previously unissued)
TTITLE26=I'd Worship You
TTITLE27=Just Dreamin'
TTITLE28=The Drunken Driver
TTITLE29=Little Joe
TTITLE30=Handsome Molly
EXTD=
EXTT0=
EXTT1=
EXTT2=
EXTT3=
EXTT4=
EXTT5=
EXTT6=
EXTT7=
EXTT8=
EXTT9=
EXTT10=
EXTT11=
EXTT12=
EXTT13=
EXTT14=
EXTT15=
EXTT16=
EXTT17=
EXTT18=
EXTT19=
EXTT20=
EXTT21=
EXTT22=
EXTT23=
EXTT24=
EXTT25=
EXTT26=
EXTT27=
EXTT28=
EXTT29=
EXTT30=
PLAYORDER=
